<svg width="109" height="109" viewBox="0 0 109 109" fill="none" xmlns="http://www.w3.org/2000/svg">
<path d="M54.5 109C84.5995 109 109 84.5995 109 54.5C109 24.4005 84.5995 0 54.5 0C24.4005 0 0 24.4005 0 54.5C0 84.5995 24.4005 109 54.5 109Z" fill="#013A4C"/>
<path d="M49.8286 55.2788L24.8364 80.3488" stroke="white" stroke-width="3.4"/>
<path d="M39.3957 26.0044H31.7657" stroke="white" stroke-width="3.4" stroke-linecap="square"/>
<path d="M35.5807 22.1895V29.8195" stroke="white" stroke-width="3.4" stroke-linecap="square"/>
<path d="M79.1029 71.395H71.5507" stroke="white" stroke-width="3.4" stroke-linecap="square"/>
<path d="M75.2878 67.6582V75.2103" stroke="white" stroke-width="3.4" stroke-linecap="square"/>
<path d="M62.0521 27.873V22.1895" stroke="white" stroke-width="3.4" stroke-linecap="square"/>
<path d="M82.9179 44.9238H77.2343" stroke="white" stroke-width="3.4" stroke-linecap="square"/>
<path d="M50.3736 54.7338L38.9286 52.0866L48.9721 46.0138L47.96 34.2573L56.8357 41.9652L67.7357 37.4495L63.1421 48.2716L70.85 57.1473L59.0936 56.1352L53.0207 66.1788L50.3736 54.7338V54.7338Z" stroke="white" stroke-width="3.4" stroke-linecap="square"/>
</svg>
